<?xml version="1.0" encoding="UTF-8" standalone="no"?>
<svg width="122px" height="163px" viewBox="0 0 122 163" version="1.1" xmlns="http://www.w3.org/2000/svg" xmlns:xlink="http://www.w3.org/1999/xlink">
    <!-- Generator: Sketch 48.2 (47327) - http://www.bohemiancoding.com/sketch -->
    <title>Group 4 Copy</title>
    <desc>Created with Sketch.</desc>
    <defs></defs>
    <g id="Desktop-HD-Copy-5" stroke="none" stroke-width="1" fill="none" fill-rule="evenodd" transform="translate(-655.000000, -1625.000000)">
        <g id="Group-7" transform="translate(109.000000, 1619.000000)" fill-rule="nonzero">
            <g id="Group-4-Copy" transform="translate(606.681241, 87.681241) rotate(-45.000000) translate(-606.681241, -87.681241) translate(546.681241, 23.681241)">
                <polygon id="Shape-Copy-2" fill="#C74F85" transform="translate(67.989455, 56.115480) scale(-1, -1) translate(-67.989455, -56.115480) " points="118.570923 90.4608096 78.3948371 107.101154 18.9565584 105.572158 17.4079862 45.2826498 33.303789 5.12980494"></polygon>
                <polygon id="Shape-Copy-3" fill="#EF5D91" transform="translate(74.759321, 50.209721) scale(-1, -1) translate(-74.759321, -50.209721) " points="115.746187 62.2737012 33.7724551 93.0793146 60.8508575 7.34012818"></polygon>
                <polygon id="Shape" fill="#FF76B0" points="102.443395 106.78584 118.365516 66.6760894 57.2341565 5.49893869 17.0204567 21.298914 37.6210778 86.4100674"></polygon>
                <polygon id="Shape" fill="#EC6093" points="32.4186826 36.7057978 57.1593004 5.70494375 17.1707784 21.4464719"></polygon>
                <polygon id="Shape" fill="#EC6093" points="87.314012 91.6393708 118.165619 66.7629191 102.561916 106.901573"></polygon>
                <polygon id="Shape" fill="#C74F85" points="102.534456 106.89135 68.1904655 122.966314 2.67786528 121.088938 0.930508828 60.022089 17.1814802 21.4744401"></polygon>
                <polygon id="Shape" fill="#EF5D91" points="87.0515681 91.6077303 1.43712575 118.247854 32.1562388 36.6741573"></polygon>
                <polygon id="Shape" fill="#C84C83" points="32.6136475 37.6171333 16.5269461 79.0117744 42.8840129 105.388584 86.1716273 91.2152315"></polygon>
                <polygon id="Shape" fill="#EC6093" points="43.1895584 105.414326 67.6712201 122.370787 102.561916 106.901573"></polygon>
                <polygon id="Shape" fill="#EC6093" points="17.1707784 79.5533708 0.0322791916 60.5196629 17.1707784 21.4464719"></polygon>
                <path d="M59.8677844,64.1725843 L119.459674,67.1952247 L59.8677844,64.1725843 Z" id="Shape" fill="#B65CFF"></path>
                <polygon id="Shape" fill="#FFB0CE" points="32.3353293 36.5389663 87.8141317 35.9550562 87.2306587 91.4725393"></polygon>
                <polygon id="Shape-Copy-4" fill="#FF7FB0" transform="translate(59.191703, 63.453483) scale(1, -1) rotate(-90.000000) translate(-59.191703, -63.453483) " points="31.4523019 36.2786517 86.9311043 35.6947416 86.3476313 91.2122247"></polygon>
                <path d="M74.711201,23.3671546 C57.1111588,26.348386 54.696189,28.7651648 51.717189,46.3783906 C48.7381891,28.7651648 46.3232193,26.348386 28.7231771,23.3671546 C46.3232193,20.3859232 48.7381891,17.9691444 51.717189,0.355918645 C54.696189,17.9691444 57.1111588,20.3859232 74.711201,23.3671546 Z" id="Shape" fill="#FEFCFF"></path>
                <path d="M76.1676647,112.179775 C64.0676357,114.229372 62.4073439,115.890907 60.3592814,128 C58.311219,115.890907 56.6509272,114.229372 44.5508982,112.179775 C56.6509272,110.130179 58.311219,108.468643 60.3592814,96.3595506 C62.4073439,108.468643 64.0676357,110.130179 76.1676647,112.179775 Z" id="Shape-Copy" fill="#FEFCFF"></path>
                <path d="M118.794489,57.6153315 C110.81947,58.966202 109.725187,60.0613049 108.375327,68.0422978 C107.025468,60.0613049 105.931185,58.966202 97.9561656,57.6153315 C105.931185,56.264461 107.025468,55.1693581 108.375327,47.1883652 C109.725187,55.1693581 110.81947,56.264461 118.794489,57.6153315 Z" id="Shape-Copy-5" fill="#FEFCFF"></path>
            </g>
        </g>
    </g>
</svg>