<?xml version="1.0" encoding="UTF-8" standalone="no"?>
<svg width="144px" height="129px" viewBox="0 0 144 129" version="1.1" xmlns="http://www.w3.org/2000/svg" xmlns:xlink="http://www.w3.org/1999/xlink">
    <!-- Generator: Sketch 48.2 (47327) - http://www.bohemiancoding.com/sketch -->
    <title>Group 4</title>
    <desc>Created with Sketch.</desc>
    <defs></defs>
    <g id="Desktop-HD-Copy-5" stroke="none" stroke-width="1" fill="none" fill-rule="evenodd" transform="translate(-381.000000, -1661.000000)">
        <g id="Group-7" transform="translate(109.000000, 1619.000000)" fill-rule="nonzero">
            <g id="Group-4" transform="translate(344.206367, 85.525126) rotate(-45.000000) translate(-344.206367, -85.525126) translate(284.206367, 25.025126)">
                <polygon id="Shape" fill="#963FD9" points="47.8745729 72.721 117.192362 104.83198 119.732261 60.16604 60.3666332 0.605 15.8472362 3.15326 47.8528643 72.69922 47.8432161 72.70648 47.8601005 72.71374 47.8673367 72.73068"></polygon>
                <polygon id="Shape" fill="#DD8CED" points="43.4870352 30.88162 60.3666332 0.605 30.6910553 18.04352"></polygon>
                <polygon id="Shape" fill="#DD8CED" points="89.5549749 77.09878 119.732261 60.16604 102.350955 89.9393"></polygon>
                <polygon id="Shape" fill="#BF70FB" points="117.194774 104.83198 0.139899497 120.59102 15.8472362 3.15084"></polygon>
                <polygon id="Shape" fill="#B65CFF" points="89.5549749 77.09878 0.142311558 120.5886 43.4870352 30.88162"></polygon>
                <polygon id="Shape" fill="#A742FF" points="66.5222111 53.9902 24.8225126 69.51208 51.0512563 95.82716"></polygon>
                <polygon id="Shape" fill="#DD8CED" points="51.0512563 95.82716 71.201608 111.02476 102.350955 89.9393"></polygon>
                <polygon id="Shape" fill="#DD8CED" points="24.8225126 69.51208 9.67477387 49.2954 30.6910553 18.04352"></polygon>
                <polygon id="Shape" fill="#B65CFF" points="60.3666332 0.605 66.5222111 53.9902 119.732261 60.16604"></polygon>
                <polygon id="Shape" fill="#DD8CED" points="43.4870352 30.88162 90.0446231 30.39036 89.5549749 77.09878"></polygon>
                <path d="M78.9787466,19.6594444 C64.2088619,22.1676382 62.1822289,24.2009422 59.6822642,39.0194444 C57.1822994,24.2009422 55.1556664,22.1676382 40.3857817,19.6594444 C55.1556664,17.1512505 57.1822994,15.1179466 59.6822642,0.299444367 C62.1822289,15.1179466 64.2088619,17.1512505 78.9787466,19.6594444 Z" id="Shape" fill="#FEFCFF"></path>
                <path d="M80.1367226,94.4635693 C69.9824269,96.1879525 68.5891167,97.585849 66.8703909,107.773569 C65.1516651,97.585849 63.758355,96.1879525 53.6040593,94.4635693 C63.758355,92.739186 65.1516651,91.3412895 66.8703909,81.1535693 C68.5891167,91.3412895 69.9824269,92.739186 80.1367226,94.4635693 Z" id="Shape-Copy" fill="#FEFCFF"></path>
            </g>
        </g>
    </g>
</svg>