<?xml version="1.0" encoding="UTF-8" standalone="no"?>
<svg width="656px" height="441px" viewBox="0 0 656 441" version="1.1" xmlns="http://www.w3.org/2000/svg" xmlns:xlink="http://www.w3.org/1999/xlink">
    <!-- Generator: Sketch 48.2 (47327) - http://www.bohemiancoding.com/sketch -->
    <title>magpie_with_ring [Converted].eps-03</title>
    <desc>Created with Sketch.</desc>
    <defs>
        <linearGradient x1="-3.37307351%" y1="79.5031446%" x2="104.766003%" y2="25.6320774%" id="linearGradient-1">
            <stop stop-color="#3B5794" offset="0%"></stop>
            <stop stop-color="#3A5590" offset="6.18%"></stop>
            <stop stop-color="#1D1B2C" offset="100%"></stop>
        </linearGradient>
        <linearGradient x1="-1.67662593%" y1="82.5631118%" x2="102.760991%" y2="24.3682768%" id="linearGradient-2">
            <stop stop-color="#23294A" offset="0%"></stop>
            <stop stop-color="#337068" offset="34.65%"></stop>
            <stop stop-color="#1D1B2C" offset="100%"></stop>
        </linearGradient>
        <linearGradient x1="12.4657607%" y1="86.6404494%" x2="87.1820068%" y2="13.7032441%" id="linearGradient-3">
            <stop stop-color="#C2B79B" offset="0%"></stop>
            <stop stop-color="#FFE994" offset="100%"></stop>
        </linearGradient>
        <linearGradient x1="8.1897893%" y1="118.384176%" x2="100.157969%" y2="12.3436477%" id="linearGradient-4">
            <stop stop-color="#552A48" offset="0%"></stop>
            <stop stop-color="#1D1B2C" offset="100%"></stop>
        </linearGradient>
        <linearGradient x1="49.9990718%" y1="149.51266%" x2="49.9990718%" y2="36.5104964%" id="linearGradient-5">
            <stop stop-color="#23294A" offset="0%"></stop>
            <stop stop-color="#1D1B2C" offset="100%"></stop>
        </linearGradient>
        <linearGradient x1="50.0004684%" y1="102.444535%" x2="50.0004684%" y2="-96.0077043%" id="linearGradient-6">
            <stop stop-color="#23294A" offset="0%"></stop>
            <stop stop-color="#1D1B2C" offset="100%"></stop>
        </linearGradient>
        <linearGradient x1="-65.0747663%" y1="-107.937404%" x2="64.2548217%" y2="73.8269828%" id="linearGradient-7">
            <stop stop-color="#000D3F" offset="0%"></stop>
            <stop stop-color="#FFFFFF" offset="100%"></stop>
        </linearGradient>
        <linearGradient x1="-0.000113465077%" y1="50.0002517%" x2="99.9999774%" y2="50.0002517%" id="linearGradient-8">
            <stop stop-color="#8C385B" offset="0%"></stop>
            <stop stop-color="#1D1B2C" offset="100%"></stop>
        </linearGradient>
        <linearGradient x1="296.060752%" y1="504.444385%" x2="46.017983%" y2="50.0375319%" id="linearGradient-9">
            <stop stop-color="#000D3F" offset="0%"></stop>
            <stop stop-color="#FFFFFF" offset="100%"></stop>
        </linearGradient>
        <linearGradient x1="0.584540555%" y1="47.5372603%" x2="99.65504%" y2="54.2788552%" id="linearGradient-10">
            <stop stop-color="#492A49" offset="0%"></stop>
            <stop stop-color="#1D1B2C" offset="100%"></stop>
        </linearGradient>
        <linearGradient x1="1.84695259%" y1="34.4000806%" x2="98.0868682%" y2="69.1664512%" id="linearGradient-11">
            <stop stop-color="#23294A" offset="0%"></stop>
            <stop stop-color="#2B2E4A" offset="0.58%"></stop>
            <stop stop-color="#46404B" offset="2.89%"></stop>
            <stop stop-color="#5C4E4B" offset="5.55%"></stop>
            <stop stop-color="#6D594C" offset="8.65%"></stop>
            <stop stop-color="#78614C" offset="12.49%"></stop>
            <stop stop-color="#7F664C" offset="17.87%"></stop>
            <stop stop-color="#81674C" offset="32.81%"></stop>
            <stop stop-color="#4E413C" offset="58.79%"></stop>
            <stop stop-color="#2B2530" offset="80.48%"></stop>
            <stop stop-color="#1D1B2C" offset="92.05%"></stop>
        </linearGradient>
    </defs>
    <g id="Desktop-HD-Copy-5" stroke="none" stroke-width="1" fill="none" fill-rule="evenodd" transform="translate(-60.000000, -379.000000)">
        <g id="magpie_with_ring-[Converted].eps-03" transform="translate(391.500000, 599.500000) rotate(-10.000000) translate(-391.500000, -599.500000) translate(31.000000, 431.000000)" fill-rule="nonzero">
            <path d="M368.856733,217.717318 C368.856733,217.717318 221.16784,297.073524 202.131239,315.927288 C200.665596,317.378868 185.359061,327.785749 187.992992,333.627082 C189.647398,337.296152 205.641204,336.09258 207.90344,336.126864 C212.419895,336.194701 224.657398,335.79424 228.033989,332.688297 C260.611939,302.720827 377.555119,219.10179 377.555119,219.10179" id="Shape" stroke="#141823" stroke-width="3.645" fill="url(#linearGradient-1)"></path>
            <path d="M351.365217,224.504732 C351.365217,224.504732 151.979417,300.041604 133.635188,323.460186 C132.095935,325.42529 131.361291,331.37458 132.800697,333.414816 C134.488629,335.80737 141.195168,336.406238 144.121353,336.396755 C149.964977,336.377061 180.258098,336.673212 184.97279,333.217868 C230.45948,299.884775 362.423499,228.26571 362.423499,228.26571" id="Shape" stroke="#141823" stroke-width="3.645" fill="url(#linearGradient-2)"></path>
            <path d="M589.023184,51.7550303 C589.270981,58.2236797 590.51798,64.0569892 590.51798,64.0569892 C604.55638,55.820184 639.350651,48.3843009 646.920834,46.8364351 C626.536657,39.8892749 610.735258,46.384184 589.023184,51.7550303 Z" id="Shape" stroke="#141823" stroke-width="2.916" fill="#444951"></path>
            <g id="Group" transform="translate(621.803784, 0.382652)">
                <path d="M51.5663018,25.4334759 C39.821518,13.6906307 20.7794798,13.6906307 9.03469598,25.4334759 C-2.71008779,37.1763211 -2.71008779,56.2152164 9.03469598,67.9580616 C20.7794798,79.7009069 39.821518,79.7009069 51.5663018,67.9580616 C63.3110855,56.214414 63.3110855,37.1763211 51.5663018,25.4334759 Z M13.0633133,63.9301092 C3.5422942,54.4106616 3.5422942,38.9800735 13.0633133,29.4614283 C22.5843324,19.9419807 38.0174678,19.9419807 47.5376844,29.4614283 C57.0587035,38.9808759 57.0587035,54.4106616 47.5376844,63.9301092 C38.0174678,73.4495569 22.5843324,73.4487545 13.0633133,63.9301092 Z" id="Shape" fill="url(#linearGradient-3)"></path>
                <g id="Group-4-Copy" transform="translate(72.635026, 25.942091) rotate(-70.000000) translate(-72.635026, -25.942091) translate(52.635026, 5.942091)">
                    <polygon id="Shape-Copy-2" fill="#C74F85" transform="translate(22.409956, 17.390635) scale(-1, -1) translate(-22.409956, -17.390635) " points="39.0820786 28.7077797 25.8396671 34.1909467 6.24825787 33.6871266 5.73783409 13.8211051 10.9772385 0.590324201"></polygon>
                    <polygon id="Shape-Copy-3" fill="#EF5D91" transform="translate(24.641367, 15.444627) scale(-1, -1) translate(-24.641367, -15.444627) " points="38.1510193 19.4198337 11.1317152 29.5706044 20.0570084 1.31864875"></polygon>
                    <polygon id="Shape" fill="#FF76B0" points="33.7662955 34.0870473 39.0143745 20.8704665 18.8649101 0.711957618 5.61010077 5.91821417 12.400257 27.3730179"></polygon>
                    <polygon id="Shape" fill="#EC6093" points="10.6854992 10.994943 18.8402368 0.779838433 5.65964821 5.96683605"></polygon>
                    <polygon id="Shape" fill="#EC6093" points="28.7795101 29.0961279 38.9484867 20.8990778 33.8053611 34.1251826"></polygon>
                    <polygon id="Shape" fill="#C74F85" points="33.7963098 34.1218141 22.4762114 39.4186821 0.882649293 38.8000672 0.306704361 18.677904 5.6631756 5.97605185"></polygon>
                    <polygon id="Shape" fill="#EF5D91" points="28.6930062 29.085702 0.473690008 37.8639005 10.5989953 10.9845171"></polygon>
                    <polygon id="Shape" fill="#C84C83" points="10.7497614 11.2952375 5.44743509 24.9352033 14.1349693 33.6266371 28.4029695 28.9563696"></polygon>
                    <polygon id="Shape" fill="#EC6093" points="14.23568 33.6351192 22.3050633 39.2224497 33.8053611 34.1251826"></polygon>
                    <polygon id="Shape" fill="#EC6093" points="5.65964821 25.1136649 0.0106395217 18.8418598 5.65964821 5.96683605"></polygon>
                    <path d="M19.7329783,20.0455354 L39.3750193,21.041527 L19.7329783,20.0455354 Z" id="Shape" fill="#B65CFF"></path>
                    <polygon id="Shape" fill="#FFB0CE" points="10.6580252 10.9399703 28.9443542 10.7475658 28.7520361 29.0411552"></polygon>
                    <polygon id="Shape-Copy-4" fill="#FF7FB0" transform="translate(19.510136, 19.808584) scale(1, -1) rotate(-90.000000) translate(-19.510136, -19.808584) " points="10.3669711 10.8541939 28.6533002 10.6617894 28.460982 28.9553788"></polygon>
                    <path d="M23.3767162,11.0081796 C17.5755786,11.9905265 16.7795821,12.7868803 15.797676,18.5906217 C14.81577,12.7868803 14.0197734,11.9905265 8.21863591,11.0081796 C14.0197734,10.0258328 14.81577,9.22947901 15.797676,3.42573752 C16.7795821,9.22947901 17.5755786,10.0258328 23.3767162,11.0081796 Z" id="Shape" fill="#FEFCFF"></path>
                    <path d="M24.5319461,32.6145397 C20.543664,33.2899032 19.9964164,33.8373964 19.321356,37.8274687 C18.6462956,33.8373964 18.099048,33.2899032 14.1107659,32.6145397 C18.099048,31.9391763 18.6462956,31.391683 19.321356,27.4016108 C19.9964164,31.391683 20.543664,31.9391763 24.5319461,32.6145397 Z" id="Shape-Copy" fill="#FEFCFF"></path>
                    <path d="M39.155768,17.8848523 C36.5271276,18.3299782 36.1664416,18.690826 35.7215154,21.3206464 C35.2765893,18.690826 34.9159033,18.3299782 32.2872629,17.8848523 C34.9159033,17.4397264 35.2765893,17.0788786 35.7215154,14.4490582 C36.1664416,17.0788786 36.5271276,17.4397264 39.155768,17.8848523 Z" id="Shape-Copy-5" fill="#FEFCFF"></path>
                </g>
            </g>
            <path d="M646.920834,46.8364351 C631.166808,33.9210195 597.443163,34.6314913 597.443163,34.6314913 C589.991048,34.287197 588.711252,43.543026 589.023184,51.7550303 C610.735258,46.384184 646.920834,46.8364351 646.920834,46.8364351 Z" id="Shape" stroke="#141823" stroke-width="2.916" fill="#6A727F"></path>
            <g id="bird_3_" transform="translate(52.474550, 18.965368)" stroke="#141823" stroke-width="3.645">
                <path d="M544.972986,15.1387403 C496.614043,-20.737171 461.37884,17.2198247 448.628253,50.3406515 C444.50973,61.0400368 436.562751,71.2419459 426.873908,81.8647403 L426.872451,81.8647403 C419.280404,90.1847013 410.064561,98.5039329 398.95599,106.694784 C393.163382,131.213357 313.507015,168.917238 255.094095,202.828775 L222.336857,221.019481 L7.01701349,291.585968 C-4.54925199,298.177162 0.124627057,315.844861 13.4334849,315.844861 L55.9276673,315.844861 C68.718339,315.844861 76.7695384,315.942606 86.8512114,308.064684 L247.639064,239.949106 L401.095785,239.949106 C404.481851,239.949106 407.779731,239.896587 410.990153,239.793736 C448.839609,200.520835 490.420589,189.040223 521.344862,163.882662 C524.566216,142.003922 521.970912,117.424076 517.762016,92.9901169 C515.114238,77.6194156 518.479168,55.6786732 538.041972,44.5576732 C539.318853,28.2226558 550.159949,27.8192771 550.159949,24.3216255 C550.159949,20.8225152 544.243444,21.7758896 544.972986,15.1387403 Z" id="Shape" fill="url(#linearGradient-4)"></path>
                <path d="M430.560974,210.875926 L430.560974,312.372011 L408.709697,285.784024 C389.434774,262.330429 397.919617,222.313502 424.114621,213.134264 L430.560974,210.875926 Z" id="Shape" fill="url(#linearGradient-5)"></path>
                <path d="M403.671411,210.875926 L403.671411,312.372011 L381.820134,285.784024 C362.544482,262.330429 371.030054,222.313502 397.225058,213.134264 L403.671411,210.875926 Z" id="Shape" fill="url(#linearGradient-6)"></path>
                <path d="M462.673213,122.744591 C449.42849,133.565792 433.151176,142.238801 414.86088,147.991143 L417.365082,148.148701 C416.298829,148.148701 415.24205,148.171314 414.185999,148.195385 C401.740785,152.050461 388.375809,154.554619 374.405917,155.469333 C352.527674,163.641219 338.03085,177.861597 338.03085,194.049268 C338.03085,218.153522 370.151106,237.903764 410.974119,239.78863 C488.073081,237.310002 515.224288,205.463502 521.33976,163.84619 C497.62345,159.057435 476.921511,144.001121 462.673213,122.744591 Z" id="Shape" fill="url(#linearGradient-7)"></path>
                <path d="M467.578125,160.812461 C460.491146,181.132394 429.686398,207.845115 387.493945,213.134994 C281.945031,226.369173 212.913302,183.530054 212.913302,183.530054 C212.913302,183.530054 253.038841,173.949626 281.750437,166.478729 C311.233847,158.806509 333.695869,150.307106 333.695869,150.307106 C363.23394,139.619392 388.361232,126.75066 398.959634,106.696242 C410.326205,99.4419892 421.918707,97.9247597 432.349482,100.281571 C457.921351,106.083515 476.49224,135.261004 467.578125,160.812461 Z" id="Shape" fill="url(#linearGradient-8)"></path>
                <path d="M450.253507,122.743861 C450.253507,141.664734 417.508659,157.001881 377.128763,157.001881 C360.858737,157.001881 345.835711,154.515959 333.695141,150.307835 L398.958905,106.696972 C410.325476,99.4427186 421.917978,97.9254892 432.348753,100.282301 C443.500324,106.298699 450.253507,114.155468 450.253507,122.743861 Z" id="Shape" fill="url(#linearGradient-9)"></path>
            </g>
            <ellipse id="Oval" fill="#CCCCCC" cx="562.765502" cy="46.4607749" rx="6.5206917" ry="6.52627489"></ellipse>
            <ellipse id="Oval" fill="#2B2B2B" cx="562.765502" cy="46.4607749" rx="4.90053996" ry="4.90473593"></ellipse>
            <ellipse id="Oval" fill="#FFFFFF" cx="561.103808" cy="45.2557446" rx="1.66242291" ry="1.66384632"></ellipse>
            <path d="M589.512218,33.9742684 C589.512218,33.9742684 593.713826,23.9933788 586.026304,14.1802597 C580.744595,7.43807143 566.790738,0.242902597 549.299221,0.242902597 C535.937888,0.242902597 497.675195,1.70177706 497.675195,1.70177706 C497.675195,1.70177706 504.070531,5.15785065 512.373171,8.02380952 C519.418608,10.4550238 520.726099,8.72188095 513.344679,11.7308095 C502.728057,16.0571017 471.680615,21.8831169 471.680615,21.8831169 C471.680615,21.8831169 477.875527,27.1109935 483.948728,29.1774892 C489.243555,30.9791991 498.282297,33.5541126 498.282297,33.5541126 C498.282297,33.5541126 496.460264,36.9583961 488.456437,42.6458182 C482.080779,47.1763528 469.494175,51.8411039 469.494175,51.8411039 C469.494175,51.8411039 478.4389,54.8536797 481.762288,55.4022165 C488.204268,56.4664654 492.484588,57.0799221 492.484588,57.0799221 C492.484588,57.0799221 488.843437,60.4324156 485.26132,63.419461 C482.971389,65.3291277 474.935495,69.3862576 474.935495,69.3862576 C474.935495,69.3862576 495.030332,71.0646926 511.828019,56.150619 C518.008355,50.6637922 527.837858,41.7464221 536.395583,36.1654978 C543.753681,31.3665303 556.19015,27.9637056 566.083789,29.9025498 C572.762633,31.2118896 589.512218,33.9742684 589.512218,33.9742684 Z" id="Shape" stroke="#141823" stroke-width="3.645" fill="url(#linearGradient-10)"></path>
            <path d="M296.72682,217.717318 C296.72682,217.717318 132.026698,266.995909 79.0171983,284.940065 C75.8344711,286.017444 0,312.685669 0,318.317654 C0,325.81481 12.4000278,328.430571 16.0506531,329.151985 C28.6255961,331.635719 49.3238909,332.948706 56.4655315,330.572199 C112.698572,311.861405 299.828649,234.638074 299.828649,234.638074 L369.388767,233.175552" id="Shape" stroke="#141823" stroke-width="3.645" fill="url(#linearGradient-11)"></path>
        </g>
    </g>
</svg>