<?xml version="1.0" encoding="UTF-8" standalone="no"?>
<svg width="181px" height="115px" viewBox="0 0 181 115" version="1.1" xmlns="http://www.w3.org/2000/svg" xmlns:xlink="http://www.w3.org/1999/xlink">
    <!-- Generator: Sketch 48.2 (47327) - http://www.bohemiancoding.com/sketch -->
    <title>magpie_with_ring [Converted].eps-01 Copy</title>
    <desc>Created with Sketch.</desc>
    <defs>
        <linearGradient x1="4.97393425%" y1="108.275254%" x2="101.464023%" y2="13.8530742%" id="linearGradient-1">
            <stop stop-color="#23294A" offset="0%"></stop>
            <stop stop-color="#1D1B2C" offset="100%"></stop>
        </linearGradient>
        <linearGradient x1="50.000919%" y1="149.512516%" x2="50.000919%" y2="36.5103527%" id="linearGradient-2">
            <stop stop-color="#23294A" offset="0%"></stop>
            <stop stop-color="#1D1B2C" offset="100%"></stop>
        </linearGradient>
        <linearGradient x1="49.9995674%" y1="102.444464%" x2="49.9995674%" y2="-96.007848%" id="linearGradient-3">
            <stop stop-color="#23294A" offset="0%"></stop>
            <stop stop-color="#1D1B2C" offset="100%"></stop>
        </linearGradient>
        <linearGradient x1="-65.0745675%" y1="-107.936906%" x2="64.2550603%" y2="73.8274813%" id="linearGradient-4">
            <stop stop-color="#000D3F" offset="0%"></stop>
            <stop stop-color="#FFFFFF" offset="100%"></stop>
        </linearGradient>
        <linearGradient x1="-3.39383719e-05%" y1="49.9990936%" x2="100.000024%" y2="49.9990936%" id="linearGradient-5">
            <stop stop-color="#2B355E" offset="0%"></stop>
            <stop stop-color="#1D1B2C" offset="100%"></stop>
        </linearGradient>
        <linearGradient x1="296.060439%" y1="504.439024%" x2="46.0176703%" y2="50.0379104%" id="linearGradient-6">
            <stop stop-color="#000D3F" offset="0%"></stop>
            <stop stop-color="#FFFFFF" offset="100%"></stop>
        </linearGradient>
    </defs>
    <g id="Desktop-HD-Copy-5" stroke="none" stroke-width="1" fill="none" fill-rule="evenodd" transform="translate(-635.000000, -1161.000000)">
        <g id="magpie_with_ring-[Converted].eps-01-Copy" transform="translate(636.000000, 1162.000000)" fill-rule="nonzero">
            <path d="M161.724962,10.1358694 C161.802595,12.1809388 162.194656,14.0251449 162.194656,14.0251449 C166.605802,11.4210714 177.538855,9.0702102 179.917557,8.58085102 C173.512214,6.3845 168.547099,8.43787143 161.724962,10.1358694 Z" id="Shape" stroke="#141823" stroke-width="0.916030534" fill="#444951"></path>
            <path d="M179.917557,8.58085102 C174.967328,4.49763061 164.370687,4.72224694 164.370687,4.72224694 C162.029084,4.61339796 161.626947,7.53963673 161.724962,10.1358694 C168.547099,8.43787143 179.917557,8.58085102 179.917557,8.58085102 Z" id="Shape" stroke="#141823" stroke-width="0.916030534" fill="#6A727F"></path>
            <g id="bird" stroke="#141823" stroke-width="1.14503817">
                <path d="M164.371832,4.7234 C149.176489,-6.61880204 138.104885,5.38133673 134.098397,15.8525163 C132.804275,19.2351367 130.307176,22.4604796 127.262748,25.8188857 L127.26229,25.8188857 C124.876718,28.449249 121.980916,31.0793816 118.490382,33.6689265 C116.670229,41.4204959 91.6406107,53.3406122 73.2861069,64.0617755 L69.150229,66.8418061 L2.13160305,105.267341 C-1.50274809,107.351153 -0.0341221374,112.936812 4.14778626,112.936812 L17.5003053,112.936812 C21.5193893,112.936812 25.4232824,111.584041 28.591145,109.093429 L70.9435878,75.797402 L119.162748,75.797402 C120.226718,75.797402 121.262977,75.780798 122.271756,75.7482816 C134.164809,63.3321184 147.230382,59.7025122 156.947405,51.7489265 C157.959618,44.8319429 157.144122,37.061002 155.821603,29.3361837 C154.989618,24.4767224 156.046947,17.5401367 162.193969,14.0242224 C162.595191,8.85989184 166.001679,8.73236327 166.001679,7.62657755 C166.001908,6.52033061 164.142595,6.82174082 164.371832,4.7234 Z" id="Shape" fill="url(#linearGradient-1)"></path>
                <path d="M128.421298,66.6058898 L128.421298,98.6939694 L121.555191,90.2881531 C115.498397,82.8732776 118.164733,70.2218898 126.395725,67.3198653 L128.421298,66.6058898 Z" id="Shape" fill="url(#linearGradient-2)"></path>
                <path d="M119.97229,66.6058898 L119.97229,98.6939694 L113.106183,90.2881531 C107.049389,82.8732776 109.715725,70.2218898 117.946718,67.3198653 L119.97229,66.6058898 Z" id="Shape" fill="url(#linearGradient-3)"></path>
                <path d="M138.511603,38.7428571 C134.349847,42.1639898 129.235191,44.9059694 123.488015,46.7245776 L124.274885,46.7743898 C123.939847,46.7743898 123.607786,46.7815388 123.275954,46.789149 C119.36542,48.0079347 115.165878,48.7996265 110.77626,49.0888143 C103.901679,51.6723633 99.3464885,56.168149 99.3464885,61.2858959 C99.3464885,68.9064776 109.439313,75.1505347 122.266718,75.7464367 C146.492748,74.9628163 155.023969,64.8945163 156.945802,51.7371653 C149.493893,50.2234265 142.988702,45.4633592 138.511603,38.7428571 Z" id="Shape" fill="url(#linearGradient-4)"></path>
                <path d="M140.052824,50.7782796 C137.825954,57.2024449 131.490458,64.0624673 119.163664,64.0624673 L73.2870229,64.0624673 L97.9841221,47.4574633 C107.265573,44.0785327 115.161069,40.0100714 118.491298,33.669849 C122.062901,31.3764102 125.705496,30.8967367 128.983053,31.6418449 C137.018473,33.4754429 142.854046,42.7001633 140.052824,50.7782796 Z" id="Shape" fill="url(#linearGradient-5)"></path>
                <path d="M134.609313,38.7428571 C134.609313,44.7247082 124.320229,49.5735612 111.632061,49.5735612 C106.519695,49.5735612 101.79916,48.7876347 97.9843511,47.4572327 L118.491298,33.6693878 C122.062901,31.375949 125.705496,30.8962755 128.983053,31.6413837 C132.487328,33.5437041 134.609313,36.0276286 134.609313,38.7428571 Z" id="Shape" fill="url(#linearGradient-6)"></path>
            </g>
            <ellipse id="Oval" fill="#CCCCCC" cx="153.474275" cy="7.30902449" rx="2.0489313" ry="2.06328776"></ellipse>
            <ellipse id="Oval" fill="#2B2B2B" cx="153.474275" cy="7.30902449" rx="1.53984733" ry="1.55063673"></ellipse>
            <ellipse id="Oval" fill="#FFFFFF" cx="152.951908" cy="6.92805306" rx="1" ry="1"></ellipse>
        </g>
    </g>
</svg>