<?xml version="1.0" encoding="UTF-8" standalone="no"?>
<svg width="209px" height="109px" viewBox="0 0 209 109" version="1.1" xmlns="http://www.w3.org/2000/svg" xmlns:xlink="http://www.w3.org/1999/xlink">
    <!-- Generator: Sketch 48.2 (47327) - http://www.bohemiancoding.com/sketch -->
    <title>magpie_with_ring [Converted].eps-03</title>
    <desc>Created with Sketch.</desc>
    <defs>
        <linearGradient x1="-3.37307351%" y1="79.5031446%" x2="104.766003%" y2="25.6320774%" id="linearGradient-1">
            <stop stop-color="#3B5794" offset="0%"></stop>
            <stop stop-color="#3A5590" offset="6.18%"></stop>
            <stop stop-color="#1D1B2C" offset="100%"></stop>
        </linearGradient>
        <linearGradient x1="-1.67662593%" y1="82.5631118%" x2="102.760991%" y2="24.3682768%" id="linearGradient-2">
            <stop stop-color="#23294A" offset="0%"></stop>
            <stop stop-color="#337068" offset="34.65%"></stop>
            <stop stop-color="#1D1B2C" offset="100%"></stop>
        </linearGradient>
        <linearGradient x1="8.1897893%" y1="118.384176%" x2="100.157969%" y2="12.3436477%" id="linearGradient-3">
            <stop stop-color="#552A48" offset="0%"></stop>
            <stop stop-color="#1D1B2C" offset="100%"></stop>
        </linearGradient>
        <linearGradient x1="49.9990718%" y1="149.51266%" x2="49.9990718%" y2="36.5104964%" id="linearGradient-4">
            <stop stop-color="#23294A" offset="0%"></stop>
            <stop stop-color="#1D1B2C" offset="100%"></stop>
        </linearGradient>
        <linearGradient x1="50.0004684%" y1="102.444535%" x2="50.0004684%" y2="-96.0077043%" id="linearGradient-5">
            <stop stop-color="#23294A" offset="0%"></stop>
            <stop stop-color="#1D1B2C" offset="100%"></stop>
        </linearGradient>
        <linearGradient x1="-65.0747663%" y1="-107.937404%" x2="64.2548217%" y2="73.8269828%" id="linearGradient-6">
            <stop stop-color="#000D3F" offset="0%"></stop>
            <stop stop-color="#FFFFFF" offset="100%"></stop>
        </linearGradient>
        <linearGradient x1="-0.000113465077%" y1="50.0002517%" x2="99.9999774%" y2="50.0002517%" id="linearGradient-7">
            <stop stop-color="#8C385B" offset="0%"></stop>
            <stop stop-color="#1D1B2C" offset="100%"></stop>
        </linearGradient>
        <linearGradient x1="296.060752%" y1="504.444385%" x2="46.017983%" y2="50.0375319%" id="linearGradient-8">
            <stop stop-color="#000D3F" offset="0%"></stop>
            <stop stop-color="#FFFFFF" offset="100%"></stop>
        </linearGradient>
        <linearGradient x1="0.584540555%" y1="47.5372603%" x2="99.65504%" y2="54.2788552%" id="linearGradient-9">
            <stop stop-color="#492A49" offset="0%"></stop>
            <stop stop-color="#1D1B2C" offset="100%"></stop>
        </linearGradient>
        <linearGradient x1="1.84695259%" y1="34.4000806%" x2="98.0868682%" y2="69.1664512%" id="linearGradient-10">
            <stop stop-color="#23294A" offset="0%"></stop>
            <stop stop-color="#2B2E4A" offset="0.58%"></stop>
            <stop stop-color="#46404B" offset="2.89%"></stop>
            <stop stop-color="#5C4E4B" offset="5.55%"></stop>
            <stop stop-color="#6D594C" offset="8.65%"></stop>
            <stop stop-color="#78614C" offset="12.49%"></stop>
            <stop stop-color="#7F664C" offset="17.87%"></stop>
            <stop stop-color="#81674C" offset="32.81%"></stop>
            <stop stop-color="#4E413C" offset="58.79%"></stop>
            <stop stop-color="#2B2530" offset="80.48%"></stop>
            <stop stop-color="#1D1B2C" offset="92.05%"></stop>
        </linearGradient>
    </defs>
    <g id="Desktop-HD-Copy-5" stroke="none" stroke-width="1" fill="none" fill-rule="evenodd" transform="translate(-1121.000000, -1163.000000)">
        <g id="magpie_with_ring-[Converted].eps-03" transform="translate(1122.000000, 1164.000000)" fill-rule="nonzero">
            <path d="M118.234243,69.0306441 C118.234243,69.0306441 70.8936828,94.1917568 64.791644,100.169634 C64.3218431,100.62988 59.4154488,103.929543 60.2597355,105.781628 C60.7900428,106.944963 65.9167366,106.563352 66.6418793,106.574222 C68.089595,106.595731 72.0122341,106.468759 73.0945751,105.483972 C83.5371912,95.9823216 121.022445,69.4696123 121.022445,69.4696123" id="Shape" stroke="#141823" stroke-width="1.16781553" fill="url(#linearGradient-1)"></path>
            <path d="M112.62747,71.1826985 C112.62747,71.1826985 48.7158555,95.1328326 42.8357515,102.558056 C42.3423555,103.181123 42.106871,105.067437 42.5682617,105.714326 C43.1093154,106.472922 45.2590459,106.662802 46.1970124,106.659796 C48.0701421,106.653551 57.7803734,106.747451 59.2916325,105.65188 C73.8720477,95.0831075 116.172119,72.3751749 116.172119,72.3751749" id="Shape" stroke="#141823" stroke-width="1.16781553" fill="url(#linearGradient-2)"></path>
            <path d="M188.806938,16.4097331 C188.886368,18.4607184 189.286084,20.3102595 189.286084,20.3102595 C193.785987,17.6986529 204.939028,15.3409912 207.365593,14.8502164 C200.831599,12.6475117 195.76658,14.7068232 188.806938,16.4097331 Z" id="Shape" stroke="#141823" stroke-width="0.934252427" fill="#444951"></path>
            <path d="M207.365593,14.8502164 C202.315759,10.755184 191.505899,10.9804501 191.505899,10.9804501 C189.11718,10.8712863 188.706951,13.8059901 188.806938,16.4097331 C195.76658,14.7068232 207.365593,14.8502164 207.365593,14.8502164 Z" id="Shape" stroke="#141823" stroke-width="0.934252427" fill="#6A727F"></path>
            <g id="bird_3_" transform="translate(16.820321, 6.013263)" stroke="#141823" stroke-width="1.16781553">
                <path d="M174.68698,4.79997182 C159.185885,-6.5750409 147.891507,5.45981183 143.804402,15.9612824 C142.484241,19.353688 139.936897,22.5883611 136.831211,25.9564825 L136.830744,25.9564825 C134.39717,28.5944548 131.443102,31.2321959 127.882333,33.8292318 C126.025556,41.6032249 100.492309,53.5578237 81.7684877,64.3100011 L71.2684021,70.0776458 L2.24925074,92.4518422 C-1.45822841,94.5416825 0.0399482631,100.1435 4.30600225,100.1435 L17.9271919,100.1435 C22.0271452,100.1435 24.6078964,100.174491 27.8395007,97.6766742 L79.378834,76.0795764 L128.568228,76.0795764 C129.653606,76.0795764 130.710717,76.0629243 131.739793,76.0303139 C143.872151,63.5782332 157.20062,59.9381274 167.113163,51.9615336 C168.145743,45.0245405 167.313838,37.2311199 165.964708,29.4839552 C165.115983,24.6104366 166.194586,17.6537847 172.465295,14.1276996 C172.87459,8.94842968 176.349622,8.82053219 176.349622,7.71154767 C176.349622,6.60210058 174.45313,6.9043827 174.68698,4.79997182 Z" id="Shape" fill="url(#linearGradient-3)"></path>
                <path d="M138.013072,66.861475 L138.013072,99.0423788 L131.00881,90.6122462 C124.830379,83.175921 127.550132,70.4879353 135.946743,67.5775159 L138.013072,66.861475 Z" id="Shape" fill="url(#linearGradient-4)"></path>
                <path d="M129.393826,66.861475 L129.393826,99.0423788 L122.389564,90.6122462 C116.210899,83.175921 118.930885,70.4879353 127.327496,67.5775159 L129.393826,66.861475 Z" id="Shape" fill="url(#linearGradient-5)"></path>
                <path d="M148.306408,38.9180716 C144.060912,42.3491009 138.843342,45.0990124 132.980526,46.9228815 L133.783229,46.9728378 C133.441449,46.9728378 133.102707,46.9800075 132.764198,46.9876397 C128.774978,48.2099511 124.490936,49.0039331 120.012992,49.2939574 C113.000086,51.8849801 108.353239,56.3937712 108.353239,61.5263227 C108.353239,69.1689492 118.649145,75.4310691 131.734654,76.0286949 C156.448144,75.2428077 165.151259,65.1453821 167.111527,51.9499696 C159.509443,50.4316206 152.873593,45.6577834 148.306408,38.9180716 Z" id="Shape" fill="url(#linearGradient-6)"></path>
                <path d="M149.878641,50.9880788 C147.606963,57.4308279 137.732734,65.9005093 124.208261,67.5777472 C90.3753527,71.7738486 68.2477528,58.1910431 68.2477528,58.1910431 C68.2477528,58.1910431 81.1096918,55.15342 90.3129773,52.7846568 C99.7636617,50.3520605 106.963694,47.6571934 106.963694,47.6571934 C116.431899,44.2684883 124.486263,40.1882578 127.883501,33.8296944 C131.52697,31.5296212 135.242859,31.0485601 138.586365,31.7958237 C146.783235,33.6354197 152.735993,42.8865941 149.878641,50.9880788 Z" id="Shape" fill="url(#linearGradient-7)"></path>
                <path d="M144.325365,38.9178403 C144.325365,44.9169956 133.829251,49.7798754 120.88578,49.7798754 C115.670546,49.7798754 110.855028,48.9916753 106.96346,47.6574247 L127.883267,33.8299257 C131.526736,31.5298524 135.242625,31.0487914 138.586131,31.796055 C142.160683,33.7036471 144.325365,36.1947571 144.325365,38.9178403 Z" id="Shape" fill="url(#linearGradient-8)"></path>
            </g>
            <ellipse id="Oval" fill="#CCCCCC" cx="180.390237" cy="14.7311075" rx="2.09015854" ry="2.06925642"></ellipse>
            <ellipse id="Oval" fill="#2B2B2B" cx="180.390237" cy="14.7311075" rx="1.57083112" ry="1.55512241"></ellipse>
            <ellipse id="Oval" fill="#FFFFFF" cx="179.857593" cy="14.349034" rx="1" ry="1"></ellipse>
            <path d="M188.963694,10.7720674 C188.963694,10.7720674 190.310488,7.60747195 187.846311,4.49607074 C186.153299,2.35835562 181.680495,0.0770160265 176.073722,0.0770160265 C171.790847,0.0770160265 159.52603,0.539574744 159.52603,0.539574744 C159.52603,0.539574744 161.576006,1.63537635 164.237355,2.54407295 C166.495717,3.31492705 166.914823,2.76540729 164.548764,3.71943465 C161.145686,5.09115253 151.193663,6.93838077 151.193663,6.93838077 C151.193663,6.93838077 153.179395,8.59595993 155.126114,9.25117436 C156.823331,9.82243437 159.720631,10.6388505 159.720631,10.6388505 C159.720631,10.6388505 159.136592,11.7182313 156.571026,13.5215164 C154.527357,14.9579925 150.492816,16.437024 150.492816,16.437024 C150.492816,16.437024 153.35998,17.3922078 154.425267,17.5661299 C156.490195,17.9035665 157.86222,18.0980724 157.86222,18.0980724 C157.86222,18.0980724 156.695076,19.1610323 155.546856,20.1081213 C154.812835,20.7136107 152.23699,21.9999865 152.23699,21.9999865 C152.23699,21.9999865 158.678239,22.5321603 164.06261,17.8034225 C166.043671,16.0637392 169.194444,13.236349 171.937558,11.4668306 C174.296141,9.94524371 178.282557,8.8663255 181.453888,9.48106604 C183.594741,9.89621249 188.963694,10.7720674 188.963694,10.7720674 Z" id="Shape" stroke="#141823" stroke-width="1.16781553" fill="url(#linearGradient-9)"></path>
            <path d="M95.1135437,69.0306441 C95.1135437,69.0306441 42.320162,84.6551838 25.3283669,90.344656 C24.3081676,90.6862556 0,99.141829 0,100.927537 C0,103.304626 3.97473537,104.133994 5.14491577,104.362729 C9.17571888,105.150235 15.8104012,105.566538 18.0996002,104.81303 C36.124677,98.8804833 96.1078116,74.3956314 96.1078116,74.3956314 L118.404783,73.9319163" id="Shape" stroke="#141823" stroke-width="1.16781553" fill="url(#linearGradient-10)"></path>
        </g>
    </g>
</svg>