<?xml version="1.0" encoding="UTF-8" standalone="no"?>
<svg width="181px" height="122px" viewBox="0 0 181 122" version="1.1" xmlns="http://www.w3.org/2000/svg" xmlns:xlink="http://www.w3.org/1999/xlink">
    <!-- Generator: Sketch 48.2 (47327) - http://www.bohemiancoding.com/sketch -->
    <title>magpie_with_ring [Converted].eps-02 Copy</title>
    <desc>Created with Sketch.</desc>
    <defs>
        <linearGradient x1="4.97394805%" y1="108.275254%" x2="101.464037%" y2="13.8530742%" id="linearGradient-1">
            <stop stop-color="#23294A" offset="0%"></stop>
            <stop stop-color="#1D1B2C" offset="100%"></stop>
        </linearGradient>
        <linearGradient x1="50.000919%" y1="149.512516%" x2="50.000919%" y2="36.5103527%" id="linearGradient-2">
            <stop stop-color="#23294A" offset="0%"></stop>
            <stop stop-color="#1D1B2C" offset="100%"></stop>
        </linearGradient>
        <linearGradient x1="49.9995674%" y1="102.444464%" x2="49.9995674%" y2="-96.007848%" id="linearGradient-3">
            <stop stop-color="#23294A" offset="0%"></stop>
            <stop stop-color="#1D1B2C" offset="100%"></stop>
        </linearGradient>
        <linearGradient x1="-65.0745675%" y1="-107.936906%" x2="64.2550603%" y2="73.8274813%" id="linearGradient-4">
            <stop stop-color="#000D3F" offset="0%"></stop>
            <stop stop-color="#FFFFFF" offset="100%"></stop>
        </linearGradient>
        <linearGradient x1="-2.95877483e-05%" y1="49.9998161%" x2="100.00005%" y2="49.9998161%" id="linearGradient-5">
            <stop stop-color="#2B355E" offset="0%"></stop>
            <stop stop-color="#1D1B2C" offset="100%"></stop>
        </linearGradient>
        <linearGradient x1="296.060502%" y1="504.439024%" x2="46.0176703%" y2="50.0379104%" id="linearGradient-6">
            <stop stop-color="#000D3F" offset="0%"></stop>
            <stop stop-color="#FFFFFF" offset="100%"></stop>
        </linearGradient>
        <linearGradient x1="0.588859203%" y1="47.5368696%" x2="99.6594188%" y2="54.2784686%" id="linearGradient-7">
            <stop stop-color="#23294A" offset="0%"></stop>
            <stop stop-color="#1D1B2C" offset="100%"></stop>
        </linearGradient>
        <linearGradient x1="-5.31882816%" y1="71.0028085%" x2="106.372516%" y2="32.4996159%" id="linearGradient-8">
            <stop stop-color="#23294A" offset="0%"></stop>
            <stop stop-color="#1D1B2C" offset="100%"></stop>
        </linearGradient>
        <linearGradient x1="-6.4901803%" y1="68.8432671%" x2="107.989016%" y2="34.7313956%" id="linearGradient-9">
            <stop stop-color="#23294A" offset="0%"></stop>
            <stop stop-color="#1D1B2C" offset="100%"></stop>
        </linearGradient>
    </defs>
    <g id="Desktop-HD-Copy-5" stroke="none" stroke-width="1" fill="none" fill-rule="evenodd" transform="translate(-875.000000, -1157.000000)">
        <g id="magpie_with_ring-[Converted].eps-02-Copy" transform="translate(876.000000, 1158.000000)" fill-rule="nonzero">
            <path d="M161.724962,17.3935878 C161.802595,19.4244275 162.194656,21.2558015 162.194656,21.2558015 C166.605802,18.6698473 177.538855,16.3353435 179.917557,15.8493893 C173.512214,13.6683206 168.547099,15.7074046 161.724962,17.3935878 Z" id="Shape" stroke="#141823" stroke-width="0.916030534" fill="#444951"></path>
            <path d="M179.917557,15.8493893 C174.967328,11.7945802 164.370687,12.0176336 164.370687,12.0176336 C162.029084,11.909542 161.626947,14.8154198 161.724962,17.3935878 C168.547099,15.7074046 179.917557,15.8493893 179.917557,15.8493893 Z" id="Shape" stroke="#141823" stroke-width="0.916030534" fill="#6A727F"></path>
            <g id="bird_1_" transform="translate(0.000000, 7.328244)" stroke="#141823" stroke-width="1.14503817">
                <path d="M164.371832,4.69053435 C149.176489,-6.57274809 138.104885,5.34389313 134.098397,15.7422137 C132.804275,19.1012977 130.307176,22.3041985 127.262748,25.6392366 L127.26229,25.6392366 C124.876718,28.2512977 121.980916,30.8631298 118.490382,33.4346565 C116.670229,41.1322901 91.6406107,52.9694656 73.2861069,63.6160305 L69.150229,66.3767176 L2.13160305,104.534885 C-1.50274809,106.604198 -0.0341221374,112.150992 4.14778626,112.150992 L17.5003053,112.150992 C21.5193893,112.150992 25.4232824,110.807634 28.591145,108.334351 L70.9435878,75.27 L119.162748,75.27 C120.226718,75.27 121.262977,75.2535115 122.271756,75.2212214 C134.164809,62.8914504 147.230382,59.2870992 156.947405,51.388855 C157.959618,44.52 157.144122,36.8031298 155.821603,29.1320611 C154.989618,24.3064122 156.046947,17.4180916 162.193969,13.9266412 C162.595191,8.79824427 166.001679,8.67160305 166.001679,7.57351145 C166.001908,6.47496183 164.142595,6.77427481 164.371832,4.69053435 Z" id="Shape" fill="url(#linearGradient-1)"></path>
                <path d="M128.421298,66.1424427 L128.421298,98.0072519 L121.555191,89.6599237 C115.498397,82.2966412 118.164733,69.7332824 126.395725,66.8514504 L128.421298,66.1424427 Z" id="Shape" fill="url(#linearGradient-2)"></path>
                <path d="M119.97229,66.1424427 L119.97229,98.0072519 L113.106183,89.6599237 C107.049389,82.2966412 109.715725,69.7332824 117.946718,66.8514504 L119.97229,66.1424427 Z" id="Shape" fill="url(#linearGradient-3)"></path>
                <path d="M138.511603,38.4732824 C134.349847,41.8706107 129.235191,44.5935115 123.488015,46.3994656 L124.274885,46.4489313 C123.939847,46.4489313 123.607786,46.4560305 123.275954,46.4635878 C119.36542,47.6738931 115.165878,48.4600763 110.77626,48.7472519 C103.901679,51.3128244 99.3464885,55.7773282 99.3464885,60.8594656 C99.3464885,68.4270229 109.439313,74.6276336 122.266718,75.2193893 C146.492748,74.4412214 155.023969,64.4429771 156.945802,51.3771756 C149.493893,49.8739695 142.988702,45.1470229 138.511603,38.4732824 Z" id="Shape" fill="url(#linearGradient-4)"></path>
                <path d="M140.052824,50.4249618 C137.825954,56.8044275 130.273282,66.8516794 117.946489,66.8516794 L63.3650382,59.7709924 L97.9841221,47.1270229 C107.265573,43.7716031 115.161069,39.7314504 118.491298,33.4353435 C122.062901,31.1578626 125.705496,30.6815267 128.983053,31.4214504 C137.018473,33.2425191 142.854046,42.4030534 140.052824,50.4249618 Z" id="Shape" fill="url(#linearGradient-5)"></path>
                <path d="M134.609313,38.4732824 C134.609313,44.4135115 124.320229,49.228626 111.632061,49.228626 C106.519695,49.228626 101.79916,48.4481679 97.9843511,47.1270229 L118.491298,33.4351145 C122.062901,31.1576336 125.705496,30.6812977 128.983053,31.4212214 C132.487328,33.3103053 134.609313,35.7769466 134.609313,38.4732824 Z" id="Shape" fill="url(#linearGradient-6)"></path>
            </g>
            <circle id="Oval" fill="#CCCCCC" cx="153.474275" cy="14.5864122" r="2.0489313"></circle>
            <circle id="Oval" fill="#2B2B2B" cx="153.474275" cy="14.5864122" r="1.53984733"></circle>
            <circle id="Oval" fill="#FFFFFF" cx="152.951908" cy="14.2080916" r="1"></circle>
            <path d="M161.878626,10.6662595 C161.878626,10.6662595 163.198855,7.53274809 160.783282,4.4519084 C159.123664,2.33519084 154.739084,0.076259542 149.242901,0.076259542 C145.044504,0.076259542 133.021603,0.534274809 133.021603,0.534274809 C133.021603,0.534274809 135.031145,1.61931298 137.64,2.51908397 C139.853817,3.28236641 140.264656,2.73824427 137.945267,3.68290076 C134.609313,5.04114504 124.853588,6.87022901 124.853588,6.87022901 C124.853588,6.87022901 126.800153,8.51152672 128.708473,9.16030534 C130.372214,9.7259542 133.212366,10.5343511 133.212366,10.5343511 C133.212366,10.5343511 132.639847,11.6031298 130.124885,13.3887023 C128.121527,14.8110687 124.166565,16.2755725 124.166565,16.2755725 C124.166565,16.2755725 126.977176,17.221374 128.02145,17.3935878 C130.045649,17.7277099 131.390611,17.9203053 131.390611,17.9203053 C131.390611,17.9203053 130.246489,18.9728244 129.120916,19.9106107 C128.401374,20.5101527 125.876107,21.7838931 125.876107,21.7838931 C125.876107,21.7838931 132.190534,22.3108397 137.468473,17.6285496 C139.410229,15.9059542 142.499084,13.1063359 145.188092,11.3541985 C147.500153,9.84755725 151.407939,8.77923664 154.516718,9.38793893 C156.615573,9.79900763 161.878626,10.6662595 161.878626,10.6662595 Z" id="Shape" stroke="#141823" stroke-width="1.14503817" fill="url(#linearGradient-7)"></path>
            <path d="M80.8648855,71.6285496 C80.8648855,71.6285496 29.1322901,108.167863 23.3679389,115.520153 C22.8842748,116.137099 22.6534351,118.004885 23.1057252,118.64542 C23.6361069,119.396565 25.7434351,119.58458 26.6629008,119.581603 C28.499084,119.57542 33.4376336,120.35542 34.919084,119.270611 C49.2119084,108.805649 84.3396183,72.809313 84.3396183,72.809313" id="Shape" stroke="#141823" stroke-width="1.14503817" fill="url(#linearGradient-8)"></path>
            <path d="M82.6630534,76.6953435 C82.6630534,76.6953435 41.2582443,109.551985 37.1473282,115.748931 C36.8022137,116.269008 36.689771,117.883969 37.0527481,118.455573 C37.4782443,119.125649 39.0762595,119.358779 39.7708397,119.386489 C41.1577099,119.441908 44.9138931,120.282824 45.9970992,119.389466 C56.4474046,110.770534 84.3396183,77.6569466 84.3396183,77.6569466" id="Shape" stroke="#141823" stroke-width="1.14503817" fill="url(#linearGradient-9)"></path>
        </g>
    </g>
</svg>